<svg xmlns="http://www.w3.org/2000/svg" width="10" height="10" viewBox="0 0 10 10">
  <path d="M5.28667,2.906 C4.50867,3.22933 2.95333,3.89933 0.62133,4.91533 C0.24267,5.066 0.044,5.21333 0.026,5.35733 C-0.00467,5.60133 0.30067,5.69733 0.71533,5.82733 C0.772,5.84533 0.83067,5.86333 0.89067,5.88333 C1.29933,6.016 1.84867,6.17133 2.134,6.17733 C2.39333,6.18267 2.68267,6.076 3.002,5.85733 C5.18067,4.386 6.30533,3.64267 6.376,3.62667 C6.426,3.61533 6.49533,3.60067 6.542,3.64267 C6.58867,3.684 6.584,3.76267 6.57933,3.784 C6.54867,3.91267 5.35267,5.02533 4.73267,5.60133 C4.53933,5.78067 4.40267,5.908 4.37467,5.93733 C4.312,6.002 4.248,6.064 4.18667,6.12333 C3.80667,6.48867 3.52267,6.76333 4.20267,7.2113 C4.52933,7.4267 4.79067,7.6047 5.05133,7.782 C5.336,7.976 5.62,8.1693 5.988,8.4107 C6.08133,8.472 6.17067,8.5353 6.258,8.5973 C6.58933,8.834 6.88733,9.046 7.2553,9.0127 C7.4687,8.9927 7.69,8.792 7.802,8.1927 C8.0667,6.77533 8.588,3.706 8.7087,2.44067 C8.716,2.33561 8.7115,2.23006 8.6953,2.126 C8.6856,2.04195 8.6447,1.96462 8.5807,1.90933 C8.4853,1.83133 8.3373,1.81467 8.2707,1.81592831 C7.97,1.82133 7.5087,1.982 5.28667,2.906 Z"/>
</svg>