<svg xmlns="http://www.w3.org/2000/svg" width="10" height="10" viewBox="0 0 10 10">
  <path d="M5.39228,6.98325 L4.91409,6.98325 C4.91409,6.98325 3.85898,7.0389 2.92986,6.19111 C1.91657,5.26636 1.02166,3.43135 1.02166,3.43135 C1.02166,3.43135 0.97008,3.31103 1.02612,3.25287 C1.08911,3.18748 1.2607,3.18329 1.2607,3.18329 L2.40378,3.17672 C2.40378,3.17672 2.51151,3.19252 2.58862,3.24211 C2.65216,3.28304 2.68778,3.35957 2.68778,3.35957 C2.68778,3.35957 2.87252,3.76907 3.11721,4.13954 C3.59475,4.86277 3.81717,5.02097 3.97932,4.94349 C4.21553,4.8305 4.14472,3.92108 4.14472,3.92108 C4.14472,3.92108 4.14907,3.59097 4.0258,3.44401 C3.93034,3.33007 3.75027,3.29685 3.67077,3.28752 C3.60647,3.28 3.71204,3.14912 3.84888,3.09038 C4.05458,3.00205 4.41787,2.99701 4.84708,3.00091 C5.18147,3.00386 5.2777,3.02214 5.40846,3.04984 C5.71183,3.11404 5.70237,3.31976 5.68196,3.76362 C5.67586,3.89625 5.66879,4.05014 5.66879,4.22787 C5.66879,4.26786 5.66746,4.31048 5.66609,4.35433 C5.659,4.58166 5.65089,4.84192 5.82159,4.93863 C5.90913,4.98813 6.1233,4.94606 6.65894,4.14887 C6.91286,3.77107 7.1032,3.32683 7.1032,3.32683 C7.1032,3.32683 7.1448,3.24763 7.2095,3.21365 C7.2756,3.179 7.3648,3.18966 7.3648,3.18966 L8.5677,3.1831 C8.5677,3.1831 8.9291,3.14531 8.9877,3.28828 C9.049,3.43839 8.8526,3.78887 8.3611,4.36294 C7.8976,4.90445 7.6707,5.10579 7.6886,5.2824 C7.7018,5.41323 7.8493,5.53049 8.1343,5.76238 C8.7265,6.24409 8.8843,6.49702 8.9218,6.55713 C8.9248,6.56199 8.9271,6.56559 8.9287,6.56795 C9.1937,6.95308 8.6348,6.98325 8.6348,6.98325 L7.5665,6.99629 C7.5665,6.99629 7.3369,7.0362 7.0347,6.85427 C6.87671,6.75923 6.72223,6.60401 6.57505,6.45612 C6.35005,6.23004 6.1421,6.02109 5.96463,6.07041 C5.66683,6.15322 5.67617,6.71559 5.67617,6.71559 C5.67617,6.71559 5.67834,6.83571 5.61046,6.89968 C5.53672,6.96936 5.39228,6.98325 5.39228,6.98325 Z"/>
</svg>