<svg xmlns="http://www.w3.org/2000/svg" width="10" height="10" viewBox="0 0 10 10">
  <path d="M9.16604071,4.65282283 L9.16604071,5.34717373 C9.1537401,7.91092569 8.924375,8.25 5,8.25 C1.075625,8.25 0.846287448,7.91092569 0.833989136,5.34717373 L0.833989136,4.65282283 C0.846020093,2.14478102 1.06575637,1.76579255 4.74926548,1.75050006 L5,1.75 C8.924375,1.75 9.1537401,2.08904675 9.16604071,4.65282283 Z M4.16667,4.1775 L4.16667,5.8225 C4.16667,6.00333 4.30083,6.08833 4.46417,6.0125 L6.335,5.13917 C6.49917,5.0625 6.49917,4.9375 6.33583,4.86083 L4.46417,3.9875 C4.30083,3.91167 4.16667,3.99667 4.16667,4.1775 Z"/>
</svg>