<svg xmlns="http://www.w3.org/2000/svg"><style>:root svg:not(:target){display:none}</style><svg fill="none" id="arrow-down" viewBox="0 0 16 16"><path fill-rule="evenodd" clip-rule="evenodd" d="M8.67 1.337a.667.667 0 0 0-1.333 0V13.06L3.808 9.532a.667.667 0 1 0-.943.943l4.667 4.666c.26.26.682.26.943 0l4.666-4.666a.667.667 0 1 0-.943-.943L8.67 13.06V1.337Z" fill="#2D3440"></path></svg><svg fill="none" id="arrow-left" viewBox="0 0 16 16"><path fill-rule="evenodd" clip-rule="evenodd" d="M6.475 3.808a.667.667 0 1 0-.943-.943L.865 7.532a.667.667 0 0 0 0 .943l4.667 4.666a.667.667 0 1 0 .943-.943L2.946 8.67h11.727a.667.667 0 0 0 0-1.333H2.946l3.529-3.529Z" fill="#2D3440"></path></svg><svg fill="none" id="arrow-right" viewBox="0 0 16 16"><path fill-rule="evenodd" clip-rule="evenodd" d="M10.478 2.865a.667.667 0 1 0-.943.943l3.529 3.529H1.337a.667.667 0 0 0 0 1.333h11.727l-3.529 3.528a.667.667 0 0 0 .943.943l4.667-4.666a.667.667 0 0 0 0-.943l-4.667-4.667Z" fill="#2D3440"></path></svg><svg fill="none" id="cart" viewBox="0 0 16 16"><path fill-rule="evenodd" clip-rule="evenodd" d="M1.167 1.25a.667.667 0 0 0 0 1.333h1.77l.468 2.336a.664.664 0 0 0 .011.053l.967 4.833a1.825 1.825 0 0 0 1.819 1.47h5.62a1.826 1.826 0 0 0 1.819-1.47l.001-.005.927-4.861a.667.667 0 0 0-.655-.792H4.611l-.473-2.361a.667.667 0 0 0-.654-.536H1.167ZM5.69 9.544 4.878 5.48h8.23l-.775 4.067a.492.492 0 0 1-.492.395H6.183a.492.492 0 0 1-.492-.397Zm-1.134 3.961a1.246 1.246 0 1 1 2.492 0 1.246 1.246 0 0 1-2.492 0Zm6.374 0a1.246 1.246 0 1 1 2.491 0 1.246 1.246 0 0 1-2.491 0Z" fill="#2D3440"></path></svg><svg fill="none" id="chevron-down" viewBox="0 0 16 16"><path fill-rule="evenodd" clip-rule="evenodd" d="M3.808 6.195a.667.667 0 1 0-.943.943l4.66 4.66a.665.665 0 0 0 .95.006l.006-.005 4.66-4.66a.667.667 0 1 0-.943-.944L8.003 10.39 3.808 6.195Z" fill="#2D3440"></path></svg><svg fill="none" id="chevron-left" viewBox="0 0 16 16"><path fill-rule="evenodd" clip-rule="evenodd" d="M9.803 3.805a.665.665 0 1 0-.94-.94L4.195 7.533a.665.665 0 0 0-.003.938l.004.003 4.668 4.668a.665.665 0 1 0 .94-.94L5.605 8.003l4.198-4.198Z" fill="#2D3440"></path></svg><svg fill="none" id="chevron-right" viewBox="0 0 16 16"><path fill-rule="evenodd" clip-rule="evenodd" d="M7.135 2.865a.665.665 0 1 0-.94.94l4.201 4.201-4.201 4.202a.665.665 0 0 0 .94.94l4.669-4.669.003-.002c.26-.26.26-.681 0-.94L7.135 2.864Z" fill="#2D3440"></path></svg><svg fill="none" id="chevrons-right" viewBox="0 0 12 12"><path fill-rule="evenodd" clip-rule="evenodd" d="M3.354 3.146a.5.5 0 1 0-.708.708L4.793 6 2.646 8.146a.5.5 0 1 0 .708.708l2.5-2.5a.5.5 0 0 0 0-.708l-2.5-2.5Zm3.5 0a.5.5 0 1 0-.708.708L8.293 6 6.146 8.146a.5.5 0 1 0 .708.708l2.5-2.5a.5.5 0 0 0 0-.708l-2.5-2.5Z" fill="#2D3440"></path></svg><svg fill="none" id="cow" viewBox="0 0 24 24"><g clip-path="url(#cow_0)"><path d="M20.062 7.715A9.037 9.037 0 0 0 20.405.55a.754.754 0 0 0-.253-.359.795.795 0 0 0-.855-.081.768.768 0 0 0-.32.304c-.991 1.714-3.122 4.477-4.683 4.606h-.07a13.005 13.005 0 0 0-2.177-.227c-.734.014-1.465.09-2.185.227h-.055C8.247 4.899 6.084 2.136 5.085.422a.766.766 0 0 0-.318-.325.802.802 0 0 0-.88.077.753.753 0 0 0-.253.376 8.997 8.997 0 0 0 .304 7.158C2.58 7.874.856 8.296.231 9.36a1.612 1.612 0 0 0 0 1.66c.179.31.445.562.767.73.322.166.687.241 1.052.215a5.68 5.68 0 0 0 1.888-.363c-.005.408.029.815.102 1.216a25.83 25.83 0 0 0 1.365 3.926c.149.354.313.755.398.996a10.96 10.96 0 0 0-.6 1.873c-.038.452.02.906.171 1.336.15.43.39.825.703 1.163C7.208 23.366 9.198 24 12.023 24c2.825 0 4.823-.634 5.947-1.887.315-.337.555-.732.705-1.162.15-.43.208-.885.17-1.337-.142-.64-.34-1.267-.594-1.873.086-.241.25-.634.39-.996a24.462 24.462 0 0 0 1.366-3.926c.079-.4.115-.808.11-1.216.582.22 1.2.343 1.826.363a1.99 1.99 0 0 0 1.054-.216c.323-.167.591-.42.772-.728a1.613 1.613 0 0 0 0-1.661c-.617-1.027-2.341-1.48-3.707-1.646Zm-.742-5.013a6.948 6.948 0 0 1-.78 4.613 8.293 8.293 0 0 0-.624-.657 5.615 5.615 0 0 0-1.491-.951 13.015 13.015 0 0 0 2.895-3.005Zm-14.601 0a12.719 12.719 0 0 0 2.887 3.02 5.111 5.111 0 0 0-1.475.951 7.977 7.977 0 0 0-.632.657 6.962 6.962 0 0 1-.78-4.628Zm-3.075 7.595c-.07-.12-.047-.158 0-.189.18-.294 1.085-.755 2.817-.928a9.602 9.602 0 0 0-.234.664c-1.015.506-2.372.823-2.583.453Zm16.826 2.265a24.983 24.983 0 0 1-1.265 3.632c-.203.461-.383.932-.538 1.411l-.047.234.086.212c.247.575.448 1.169.6 1.774.01.238-.032.475-.119.698a1.797 1.797 0 0 1-.387.6c-.562.627-1.842 1.367-4.769 1.367-2.926 0-4.206-.755-4.768-1.366a1.816 1.816 0 0 1-.507-1.299c.156-.605.36-1.199.608-1.774l.086-.212-.054-.234a11.982 11.982 0 0 0-.531-1.42 24.313 24.313 0 0 1-1.28-3.653 5.253 5.253 0 0 1 .212-2.6A5.401 5.401 0 0 1 7.24 7.73c1.179-1.147 3.848-1.404 4.777-1.412.928-.007 3.543.257 4.791 1.427a5.335 5.335 0 0 1 1.452 2.192c.29.835.362 1.726.21 2.595v.03Zm3.902-2.265c-.203.362-1.561.053-2.529-.445a7.528 7.528 0 0 0-.226-.672c1.717.173 2.614.634 2.786.928.039.03.055.068-.016.19h-.015Z" fill="#2D3440"></path></g><defs><clipPath id="cow_0"><path fill="#fff" d="M0 0h24v24H0z"></path></clipPath></defs></svg><svg fill="none" id="cross" viewBox="0 0 16 16"><path fill-rule="evenodd" clip-rule="evenodd" d="M12.803 4.138a.667.667 0 1 0-.943-.943L8 7.056l-3.862-3.86a.667.667 0 1 0-.943.942L7.056 8l-3.86 3.861a.667.667 0 1 0 .942.943L8 8.942l3.861 3.861a.667.667 0 1 0 .943-.943L8.942 8l3.861-3.862Z" fill="#2D3440"></path></svg><svg fill="none" id="heart-fill" viewBox="0 0 16 16"><path d="M13.891 2.994a3.667 3.667 0 0 0-5.187 0l-.706.707-.707-.707a3.668 3.668 0 0 0-5.187 5.187l.707.707 5.187 5.187 5.186-5.187.707-.707a3.667 3.667 0 0 0 0-5.187Z" fill="#2D3440"></path></svg><svg viewBox="0 0 115 34" id="htmlacademy"><path d="M0 13.26v2.6h2.5v-2.6H0Zm11.6-8.4c-1.6 0-2.8.7-3.6 1.7h-.1V.36h-2v15.5h2v-5.3c0-2.1 1.3-3.6 3.3-3.6 1.8 0 2.9 1.4 2.9 3.2v5.7h2v-6.1c.1-3-1.8-4.9-4.5-4.9Zm15 .3h-4.8v-3.7h-2v3.8h-1.9v2h1.9v6c0 1.7 1 2.7 2.7 2.7h4.1v-2h-3.7c-.7 0-1.1-.4-1.1-1.1v-5.7h4.8v-2Zm14.5-.2c-1.6 0-2.9.8-3.5 2.1h-.1c-.6-1.2-1.8-2.1-3.4-2.1-1.4 0-2.5.8-3.1 1.8h-.1v-1.6H29v10.6h2v-5.4c0-2 1-3.5 2.6-3.5 1.5 0 2.4 1 2.4 2.6v6.3h2v-5.6c0-2.4 1.4-3.3 2.6-3.3 1.5 0 2.4 1 2.4 2.6v6.3h2v-6.5c.1-2.5-1.4-4.3-3.9-4.3Zm6.7 8.1c0 1.7 1 2.7 2.8 2.7h2v-2h-1.7c-.7 0-1.1-.4-1.1-1.1V.36h-2v12.7Zm-18.9 7c-.9-1.1-2.2-1.8-3.9-1.8-3.1 0-5.4 2.3-5.4 5.6s2.3 5.6 5.4 5.6c1.8 0 3-.8 3.8-1.9h.1v1.6h2v-10.6h-2v1.5Zm-3.6 7.4c-2.2 0-3.6-1.6-3.6-3.6s1.4-3.6 3.6-3.6 3.6 1.6 3.6 3.6c0 1.9-1.4 3.6-3.6 3.6Zm18.9-5.1c-.5-2.4-2.6-4.1-5.4-4.1a5.4 5.4 0 0 0-5.6 5.6c0 3.1 2.2 5.6 5.6 5.6 2.8 0 4.9-1.8 5.4-4.2h-2.1a3.4 3.4 0 0 1-3.3 2.3c-2.2 0-3.6-1.6-3.6-3.6s1.4-3.6 3.6-3.6c1.6 0 2.8 1 3.3 2.2h2.1v-.2Zm10.9-2.3c-.9-1.1-2.2-1.8-3.9-1.8-3.1 0-5.4 2.3-5.4 5.6s2.3 5.6 5.4 5.6c1.8 0 3-.8 3.8-1.9h.1v1.6h2v-10.6h-2v1.5Zm-3.6 7.4c-2.2 0-3.6-1.6-3.6-3.6s1.4-3.6 3.6-3.6 3.6 1.6 3.6 3.6c0 1.9-1.5 3.6-3.6 3.6Zm17.2-7.3c-.9-1.1-2.2-1.9-3.9-1.9-3.1 0-5.4 2.3-5.4 5.6s2.2 5.6 5.4 5.6c1.7 0 3-.8 3.8-1.8h.1v1.5h2v-15.4h-2v6.4Zm-3.6 7.3c-2.2 0-3.6-1.6-3.6-3.6s1.4-3.6 3.6-3.6 3.6 1.6 3.6 3.6c-.1 2-1.5 3.6-3.6 3.6Zm13.2-9.2c-3.3 0-5.5 2.5-5.5 5.6 0 3 2.1 5.6 5.5 5.6 2.5 0 4.5-1.3 5.2-3.6h-2.1c-.5 1-1.6 1.6-3 1.6-1.9 0-3.3-1.3-3.4-2.9h8.8c.2-3.6-2-6.3-5.5-6.3Zm0 1.9c1.7 0 3 1 3.3 2.6h-6.5c.3-1.5 1.5-2.6 3.2-2.6Zm19.9-1.9c-1.6 0-2.9.8-3.6 2h-.1c-.6-1.2-1.8-2-3.4-2-1.4 0-2.5.7-3.1 1.8v-1.5h-1.9v10.6h2v-5.4c0-2 1-3.4 2.6-3.5 1.5 0 2.4 1 2.4 2.6v6.3h2v-5.6c0-2.4 1.4-3.3 2.6-3.3 1.5 0 2.4 1 2.4 2.6v6.3h2v-6.5c.1-2.6-1.4-4.4-3.9-4.4Zm11.2 9.1-3.6-8.9h-2.2l4.8 11.6c-.3.9-.7 1.2-1.7 1.2h-2.5v2h2.5c1.8 0 2.8-.8 3.5-2.6l4.7-12.2h-2.1l-3.4 8.9Z"></path></svg><svg fill="none" id="ice-cream-cone" viewBox="0 0 24 24"><path d="M12.026 1.202c.876 0 1.737.223 2.496.648a4.93 4.93 0 0 1 1.83 1.772 4.75 4.75 0 0 1 .674 2.422 4.75 4.75 0 0 1-.66 2.426c.302.042.586.165.82.355.234.19.41.44.506.72.096.281.11.583.04.871-.07.288-.221.552-.437.762-.216.21-.487.356-.784.424a1.69 1.69 0 0 1-.897-.039 1.645 1.645 0 0 1-.741-.491 1.574 1.574 0 0 1-.365-.797c-.062.034-.126.067-.19.1a2.241 2.241 0 0 1-.787 1.357c-.42.347-.954.537-1.505.537-.552 0-1.085-.19-1.505-.537-.42-.348-.7-.829-.788-1.357l-.19-.1c-.042.294-.169.57-.364.797a1.646 1.646 0 0 1-.742.492c-.29.094-.6.107-.898.039a1.656 1.656 0 0 1-.784-.426 1.584 1.584 0 0 1-.436-.763c-.07-.289-.055-.59.042-.872.097-.28.273-.53.508-.72.235-.189.52-.31.822-.352a4.749 4.749 0 0 1-.66-2.424 4.75 4.75 0 0 1 .673-2.422 4.93 4.93 0 0 1 1.828-1.772 5.113 5.113 0 0 1 2.494-.65Zm0-1.202c-.982 0-1.95.224-2.825.655a6.191 6.191 0 0 0-2.213 1.828 5.965 5.965 0 0 0-1.12 2.602A5.89 5.89 0 0 0 6.083 7.9a2.774 2.774 0 0 0-1.057 1.808c-.1.712.088 1.435.523 2.016a2.886 2.886 0 0 0 1.813 1.106 2.944 2.944 0 0 0 2.097-.418c.333.336.733.604 1.175.786a3.666 3.666 0 0 0 2.797 0c.443-.182.842-.45 1.176-.786a2.945 2.945 0 0 0 2.072.37 2.884 2.884 0 0 0 1.775-1.103c.427-.573.614-1.281.524-1.983A2.77 2.77 0 0 0 17.969 7.9a5.889 5.889 0 0 0 .215-2.814 5.964 5.964 0 0 0-1.12-2.602A6.19 6.19 0 0 0 14.85.655 6.385 6.385 0 0 0 12.026 0Z" fill="#2D3440"></path><path d="M16.133 13.533a3.64 3.64 0 0 1-1.415-.289c-.065.052-.134.098-.203.146l.094.09-.69.669-.295-.287a4.462 4.462 0 0 1-.373.124l.417.405-.688.67-.693-.67.274-.266a4.212 4.212 0 0 1-1.045.002l.273.264-.69.67-.689-.67.414-.402a3.883 3.883 0 0 1-.371-.123l-.297.283-.697-.67.087-.084c-.073-.05-.144-.098-.212-.151-.447.19-.928.287-1.415.289h-.106a.58.58 0 0 0 .029.278l3.602 9.808a.284.284 0 0 0 .014.034.9.9 0 0 0 .058.103l.017.023a.615.615 0 0 0 .072.079l.018.013.069.052.032.017c.024.013.05.024.076.034h.02l.07.017h.028a.572.572 0 0 0 .198 0h.03l.069-.017h.03a.712.712 0 0 0 .074-.034l.032-.019a.39.39 0 0 0 .07-.05l.019-.013a.772.772 0 0 0 .072-.08l.014-.022a.559.559 0 0 0 .043-.069l.031-.068 3.61-9.813a.56.56 0 0 0 .029-.279c-.036 0-.062.006-.107.006Zm-2.475 2.683-.69.67-.68-.67.687-.67.683.67Zm-2.314.912.689-.67.69.67-.69.67-.69-.67Zm1.378 1.825-.689.67-.69-.67.69-.67.69.67Zm-.689-4.318.69.67-.69.664-.69-.67.69-.664Zm-.25 1.581-.689.67-.69-.67.69-.67.69.67Zm-2.635-2.428.067-.065.69.668-.395.376-.362-.979Zm.488 1.345.513-.498.687.67-.68.664-.317-.307-.203-.53Zm.5 1.351.02-.019.687.67-.345.343-.362-.994Zm.737 2.018-.25-.687.464-.45.69.67-.683.681-.22-.214Zm.607 1.652-.33-.897.627.608-.297.289Zm.539 1.47-.409-1.113.416-.404.405.393-.412 1.123Zm.544-1.48-.276-.279.603-.587-.327.865Zm.608-1.62-.2.192-.684-.676.688-.668.455.44-.259.712Zm.393-1.07-.334-.326.69-.67v.01l-.356.986Zm.649-1.767-.3.282-.69-.67.69-.67.496.494-.196.565Zm.332-.92-.384-.374.69-.67.056.055-.362.99Z" fill="#2D3440"></path></svg><svg fill="none" id="ice-cream" viewBox="0 0 24 24"><path d="M12 0a6.007 6.007 0 0 0-5.958 5.294H6V17.21h12V5.294h-.042A6.007 6.007 0 0 0 12 0Zm4.588 15.798H7.412V9.289a1.264 1.264 0 0 0 1.087.452c.91 0 1.503-.508 1.503-1.15v-.615a.605.605 0 0 1 .851-.62.607.607 0 0 1 .356.62V10.3a1.32 1.32 0 0 0 1.497 1.292 1.313 1.313 0 0 0 1.496-1.236v-1.56a.951.951 0 0 1 1.333-.954.953.953 0 0 1 .566.954.281.281 0 0 0 0 .064.797.797 0 0 0 .473.628v6.353l.014-.042ZM10.941 22.941a1.059 1.059 0 1 0 2.118 0v-5.026H10.94v5.026Z" fill="#2D3440"></path></svg><svg fill="none" id="info" viewBox="0 0 16 16"><path fill-rule="evenodd" clip-rule="evenodd" d="M8 2.333a5.667 5.667 0 1 0 0 11.334A5.667 5.667 0 0 0 8 2.333ZM1 8a7 7 0 1 1 14 0A7 7 0 0 1 1 8Zm7-.667c.368 0 .667.299.667.667v2.533a.667.667 0 1 1-1.334 0V8c0-.368.299-.667.667-.667ZM8 4.8a.667.667 0 1 0 0 1.333h.007a.667.667 0 0 0 0-1.333H8Z" fill="#2D3440"></path></svg><svg fill="none" id="leaf" viewBox="0 0 24 24"><path d="M18.993 13.864C18.688 7.057 12.757.466 12.493.179h-.034l-.082-.093-.088-.057h-.38L11.782 0h-.034l-.122.086-.075.064h-.033c-.265.316-6.196 6.914-6.514 13.714-.004.05-.004.1 0 .15v.781c.257 7.38 6.778 9.185 6.832 9.2h.17a.686.686 0 0 0 .17 0c.06 0 6.574-1.856 6.825-9.2v-.78c0-.05-.007-.101-.007-.151ZM6.792 11.349a16.67 16.67 0 0 0 4.535 2.945v3.26c-1.66-.867-4.216-2.408-4.969-3.762.061-.827.2-1.645.414-2.443h.02Zm1.356-3.654a8.33 8.33 0 0 0 3.179 2.192v2.823A13.01 13.01 0 0 1 7.26 9.844c.258-.733.554-1.45.888-2.15Zm8.615 2.15a12.976 12.976 0 0 1-4.067 2.865V9.887a8.335 8.335 0 0 0 3.152-2.192c.342.688.647 1.396.915 2.12v.03Zm-4.067-1.477V2.637a32.43 32.43 0 0 1 2.474 3.711 6.21 6.21 0 0 1-2.488 1.992l.014.028Zm0 9.2v-3.274a16.66 16.66 0 0 0 4.555-2.93c.208.8.34 1.621.393 2.45-.745 1.332-3.3 2.866-4.961 3.725l.013.029Zm-1.356-9.2a6.155 6.155 0 0 1-2.487-2.02 32.449 32.449 0 0 1 2.474-3.747l.013 5.767ZM6.5 16.056a22.623 22.623 0 0 0 4.827 3.074v3.152a8.011 8.011 0 0 1-3.163-2.463 8.64 8.64 0 0 1-1.663-3.763Zm6.182 6.233v-3.166a22.251 22.251 0 0 0 4.827-3.067 8.526 8.526 0 0 1-1.65 3.777 7.896 7.896 0 0 1-3.177 2.457Z" fill="#2D3440"></path></svg><svg fill="none" id="log-in" viewBox="0 0 16 16"><path fill-rule="evenodd" clip-rule="evenodd" d="M9 1.667C9 1.298 9.298 1 9.667 1h2.666a2 2 0 0 1 2 2v9.333a2 2 0 0 1-2 2H9.667a.667.667 0 1 1 0-1.333h2.666a.666.666 0 0 0 .667-.667V3a.666.666 0 0 0-.667-.667H9.667A.667.667 0 0 1 9 1.667ZM5.862 3.862c.26-.26.682-.26.943 0l3.329 3.329a.69.69 0 0 1 .129.177.664.664 0 0 1-.13.775L6.806 11.47a.667.667 0 1 1-.943-.942l2.195-2.196h-6.39a.667.667 0 1 1 0-1.333h6.39L5.862 4.805a.667.667 0 0 1 0-.943Z" fill="#2D3440"></path></svg><svg fill="none" id="search" viewBox="0 0 16 16"><path fill-rule="evenodd" clip-rule="evenodd" d="M2.663 7.33a4.667 4.667 0 1 1 8.028 3.238.683.683 0 0 0-.123.123A4.667 4.667 0 0 1 2.664 7.33Zm8.412 4.688a6 6 0 1 1 .943-.943l2.45 2.45a.667.667 0 1 1-.943.943l-2.45-2.45Z" fill="#2D3440"></path></svg><svg fill="none" id="telegram" viewBox="0 0 16 16"><path fill-rule="evenodd" clip-rule="evenodd" d="M16 8A8 8 0 1 1 0 8a8 8 0 0 1 16 0ZM8.287 5.906c-.778.323-2.334.993-4.666 2.01-.378.15-.577.297-.595.441-.03.244.275.34.69.47l.175.056c.408.133.958.288 1.243.294.26.006.549-.101.868-.32 2.179-1.471 3.303-2.214 3.374-2.23.05-.012.12-.026.166.016.047.041.042.12.037.141-.03.129-1.226 1.241-1.846 1.817a18.84 18.84 0 0 0-.546.522c-.38.366-.664.64.016 1.088.326.216.588.394.848.571.285.194.569.387.937.629.093.061.183.124.27.186.331.237.63.449.997.416.214-.02.435-.221.547-.82.265-1.418.786-4.487.907-5.752a1.41 1.41 0 0 0-.014-.315.337.337 0 0 0-.114-.217.522.522 0 0 0-.31-.093c-.301.005-.762.166-2.984 1.09Z" fill="#2D3440"></path></svg><svg fill="none" id="thermometer" viewBox="0 0 24 24"><path d="M14.392 3.802a3.975 3.975 0 0 0-1.025-2.688C12.71.4 11.82 0 10.892 0c-.929 0-1.819.4-2.475 1.114a3.975 3.975 0 0 0-1.025 2.688v11.066c-.898.995-1.398 2.334-1.392 3.727-.002.892.2 1.77.586 2.557a5.256 5.256 0 0 0 1.632 1.95c.685.493 1.47.794 2.289.875a4.608 4.608 0 0 0 2.396-.407 5.028 5.028 0 0 0 1.933-1.593 5.616 5.616 0 0 0 1.006-2.398 5.835 5.835 0 0 0-.161-2.63 5.474 5.474 0 0 0-1.29-2.232V3.802Zm.125 14.793c.007.66-.141 1.31-.43 1.89-.29.58-.711 1.07-1.224 1.423a3.37 3.37 0 0 1-1.707.595 3.323 3.323 0 0 1-1.757-.382 3.661 3.661 0 0 1-1.364-1.263 4.08 4.08 0 0 1-.625-1.826 4.172 4.172 0 0 1 .273-1.924c.24-.606.619-1.135 1.1-1.537V3.802c0-.607.222-1.19.618-1.62.395-.429.931-.67 1.49-.67.56 0 1.096.241 1.492.67.395.43.617 1.013.617 1.62v11.626c.47.355.853.829 1.117 1.38.264.552.401 1.165.4 1.787Z" fill="#2D3440"></path><path d="M11.65 16.229V3.855a.79.79 0 0 0-.204-.534.669.669 0 0 0-.492-.222.669.669 0 0 0-.492.222.79.79 0 0 0-.204.534v12.374c-.464.178-.855.529-1.104.99a2.435 2.435 0 0 0-.257 1.531 2.32 2.32 0 0 0 .712 1.35c.376.345.853.534 1.345.534.493 0 .97-.189 1.346-.533a2.32 2.32 0 0 0 .712-1.35 2.434 2.434 0 0 0-.257-1.532 2.137 2.137 0 0 0-1.105-.99ZM20 2.956h-4.175v1.511H20V2.956ZM20 5.979h-4.175v1.512H20V5.979ZM20 9.003h-4.175v1.511H20V9.003ZM20 12.026h-4.175v1.512H20v-1.512Z" fill="#2D3440"></path></svg><svg fill="none" id="vk" viewBox="0 0 16 16"><path fill-rule="evenodd" clip-rule="evenodd" d="M16 8A8 8 0 1 1 0 8a8 8 0 0 1 16 0ZM8.392 9.983h-.478s-1.055.056-1.984-.792c-1.013-.925-1.908-2.76-1.908-2.76s-.052-.12.004-.178c.063-.066.235-.07.235-.07l1.143-.006s.108.016.185.065c.063.041.099.118.099.118s.185.41.43.78c.477.723.7.881.861.803.237-.112.166-1.022.166-1.022s.004-.33-.12-.477c-.095-.114-.275-.147-.354-.156-.065-.008.041-.139.178-.198.206-.088.569-.093.998-.09.334.004.43.022.561.05.304.064.294.27.274.714a9.697 9.697 0 0 0-.013.464l-.003.126c-.007.228-.015.488.156.585.087.05.301.007.837-.79.254-.378.444-.822.444-.822s.042-.08.107-.113c.066-.035.155-.024.155-.024l1.203-.007s.361-.038.42.105c.061.15-.135.5-.627 1.075-.463.541-.69.743-.672.92.013.13.16.247.445.48.592.481.75.734.788.794a.326.326 0 0 0 .007.01c.265.386-.294.416-.294.416l-1.069.013s-.23.04-.531-.142c-.158-.095-.313-.25-.46-.398-.225-.226-.433-.435-.61-.386-.298.083-.289.646-.289.646s.002.12-.066.184c-.073.07-.218.083-.218.083Z" fill="#2D3440"></path></svg><svg fill="none" id="youtube" viewBox="0 0 16 16"><path d="m9.336 7.86-1.872-.873c-.163-.075-.297.01-.297.19v1.646c0 .18.134.265.297.19l1.871-.874c.164-.076.164-.201 0-.278ZM8 0a8 8 0 1 0 0 16A8 8 0 0 0 8 0Zm0 11.25c-4.095 0-4.167-.37-4.167-3.25S3.905 4.75 8 4.75s4.167.37 4.167 3.25-.072 3.25-4.167 3.25Z" fill="#2D3440"></path></svg></svg>